/* XPM */
static char * crosshair2_xpm[] = {
"13 13 2 1",
" 	c #FF00FF",
".	c #AC3232",
"      .      ",
"     ...     ",
"     ...     ",
"     ...     ",
"      .      ",
" ...     ... ",
".....   .....",
" ...     ... ",
"      .      ",
"     ...     ",
"     ...     ",
"     ...     ",
"      .      "};
