/* XPM */
static char * quit2_xpm[] = {
"210 70 3 1",
" 	c None",
".	c #FDFF00",
"+	c #F3F005",
"..............................................................................................................................................................................................................    ",
"...............................................................................................................................................................................................................   ",
"................................................................................................................................................................................................................  ",
"...                                                                                                                                                                                                       ....... ",
"...                                                                                                                                                                                                        .......",
"...                                                                                                                                                                                                         ......",
"...                                                                                                                                                                                                          .....",
"...                                                                                                                                                                                                           ....",
"...                                                                                                                                                                                                            ...",
"...                                                                                                                                                                                                            ...",
"...                                                                                                                                                                                                            ...",
"...                                                                                                                                                                                                            ...",
"...                                                                                                                                                                                                            ...",
"...                                                                                                                                                                                                            ...",
"...                                                                                                                                                                                                            ...",
"...                                                                                                                                                                                                            ...",
"...                                                                                                                                                                                                            ...",
"...                                                                                                                                                                                                            ...",
"...                                                                                                                                                                                                            ...",
"...                                                                                                                                                                                                            ...",
"...                                                          .........                                                                                                                                         ...",
"...                                                         ..   ... ...                                   ..             .            .........  ...........                                                  ...",
"...                                                       ..   ..........              .. ..              . .             ....        ..    ............. ....                                                 ...",
"...                                                     ........   .......             .  ..              . ..            ....        ........................                                                 ...",
"...                                                   .......         .....            .  ..             ..  .            ....        ......................                                                   ...",
"...                                                   ..............    ...            .  ..             ... ..           ....            ...........                                                          ...",
"...                                                  ......        ...   ...           . ...             ... ..           ....                  . ..                                                           ...",
"...                                                 .......         ...   ..           . ...             .  ...           .....                 . ..                                                           ...",
"...                                                 ......           ...   ..          . ...             .  ...           .....                 . ...                                                          ...",
"...                                                ......             ...  ..          . ...             .  ...           .....                 . ...                                                          ...",
"...                                                .....               ..  ..          .....             .  ...           .....                 . ...                                                          ...",
"...                                                ....                 ..  .          ... .             .  ..            .....                 . ...                                                          ...",
"...                                                ....                  .....         ... .             .  ..            .....                 .....                                                          ...",
"...                                                ....                  .....         .....             .  ..            .....                 .....                                                          ...",
"...                                                ....                  .....         .....             .  ..            ... .                 ....                                                           ...",
"...                                                ....                   ....         .....             .  ..            ..  .                 ....                                                           ...",
"...                                                ....                   ....         .....             . ...            ..  .                 ....                                                           ...",
"...                                                .....                  . ..         .....             . ...            ..  .                 ....                                                           ...",
"...                                                .....                  . ..         .....             .....            ..  .                 ....                                                           ...",
"...                                                ......                 ....         .....             .....            ..  .                 ....                                                           ...",
"...                                                ... ..         ..     .....          ....             .. ..            .. ..                 ....                                                           ...",
"...                                                .... ..      .....    ....          .....             .. ..            .. ..                 ....                                                           ...",
"...                                                .... ..       ......  ....          ......            .  ..            .. ..                .....                                                           ...",
"...                                                 ...  ..      ............          ......           .. ...            .. ..                .....                                                           ...",
"...                                                 ....  ..       .........            ......          ... ..            .. ..                .....                                                           ...",
"...                                                  ...  ...       ........            ........       ...  .             .. ..                .....                                                           ...",
"...                                                    ... ....     ........             ................. .              .. ..                .....                                                           ...",
"...                                                     ......................            ........       ..               .. ..                .....                                                           ...",
"...                                                       ............  .......            ..........   ..                .. .                 .....                                                           ...",
"...                                                           .           ......                  .......                                      .  ..                                                           ...",
"...                                                                        ....                                                                                                                                ...",
"...                                                                         ...                                                                                                                                ...",
"...                                                                          ..                                                                                                                                ...",
"...                                                                                                                                                                                                            ...",
"...                                                                                                                                                                                                            ...",
"...                                                                                                                                                                                                            ...",
"...                                                                                                                                                                                                            ...",
"...                                                                                                                                                                                                            ...",
"...                                                                                                                                                                                                            ...",
"...                                                                                                                                                                                                            ...",
"...                                                                                                                                                                                                            ...",
"...+                                                                                                                                                                                                           ...",
"....                                                                                                                                                                                                           ...",
"....                                                                                                                                                                                                           ...",
".....                                                                                                                                                                                                          ...",
"......                                                                                                                                                                                                         ...",
" .......                                                                                                                                                                                                       ...",
" .................................................................................................................................................................................................................",
"  ................................................................................................................................................................................................................",
"   ..............................................................................................................................................................................................................."};
